{
	"asset":{
		"generator":"Khronos glTF Blender I/O v4.3.47",
		"version":"2.0"
	},
	"scene":0,
	"scenes":[
		{
			"name":"Scene",
			"nodes":[
				0
			]
		}
	],
	"nodes":[
		{
			"mesh":0,
			"name":"Boat.001"
		}
	],
	"materials":[
		{
			"doubleSided":true,
			"name":"green",
			"pbrMetallicRoughness":{
				"baseColorFactor":[
					0,
					0.172698974609375,
					0.09806293249130249,
					1
				],
				"metallicFactor":0,
				"roughnessFactor":0.5
			}
		},
		{
			"doubleSided":true,
			"name":"Dache",
			"pbrMetallicRoughness":{
				"baseColorFactor":[
					0.03240695595741272,
					0.070187047123909,
					0.09748924523591995,
					1
				],
				"metallicFactor":0,
				"roughnessFactor":0.5
			}
		},
		{
			"doubleSided":true,
			"name":"floor",
			"pbrMetallicRoughness":{
				"baseColorFactor":[
					0.22863659262657166,
					0.10403190553188324,
					0.012705831788480282,
					1
				],
				"metallicFactor":0,
				"roughnessFactor":0.5
			}
		},
		{
			"doubleSided":true,
			"name":"Matebluerial",
			"pbrMetallicRoughness":{
				"baseColorFactor":[
					0,
					0.3342556953430176,
					0.8017309904098511,
					1
				],
				"metallicFactor":0,
				"roughnessFactor":0.5
			}
		},
		{
			"doubleSided":true,
			"name":"Logo Shader",
			"pbrMetallicRoughness":{
				"baseColorFactor":[
					0.08682991564273834,
					0.12145647406578064,
					0.17162784934043884,
					1
				],
				"metallicFactor":0,
				"roughnessFactor":0.5
			}
		},
		{
			"doubleSided":true,
			"name":"Motor",
			"pbrMetallicRoughness":{
				"baseColorFactor":[
					0.07673175632953644,
					0.07673175632953644,
					0.07673175632953644,
					1
				],
				"metallicFactor":0,
				"roughnessFactor":0.5
			}
		},
		{
			"doubleSided":true,
			"name":"Motorstange",
			"pbrMetallicRoughness":{
				"baseColorFactor":[
					0.800000011920929,
					0.800000011920929,
					0.800000011920929,
					1
				],
				"metallicFactor":0.6630434989929199,
				"roughnessFactor":0.5
			}
		}
	],
	"meshes":[
		{
			"name":"Cube.001",
			"primitives":[
				{
					"attributes":{
						"POSITION":0,
						"NORMAL":1,
						"TEXCOORD_0":2,
						"TEXCOORD_1":3
					},
					"indices":4,
					"material":0
				},
				{
					"attributes":{
						"POSITION":5,
						"NORMAL":6,
						"TEXCOORD_0":7,
						"TEXCOORD_1":8
					},
					"indices":9,
					"material":1
				},
				{
					"attributes":{
						"POSITION":10,
						"NORMAL":11,
						"TEXCOORD_0":12,
						"TEXCOORD_1":13
					},
					"indices":14,
					"material":2
				},
				{
					"attributes":{
						"POSITION":15,
						"NORMAL":16,
						"TEXCOORD_0":17,
						"TEXCOORD_1":18
					},
					"indices":19,
					"material":3
				},
				{
					"attributes":{
						"POSITION":20,
						"NORMAL":21,
						"TEXCOORD_0":22,
						"TEXCOORD_1":23
					},
					"indices":24,
					"material":4
				},
				{
					"attributes":{
						"POSITION":25,
						"NORMAL":26,
						"TEXCOORD_0":27,
						"TEXCOORD_1":28
					},
					"indices":29,
					"material":5
				},
				{
					"attributes":{
						"POSITION":30,
						"NORMAL":31,
						"TEXCOORD_0":32,
						"TEXCOORD_1":33
					},
					"indices":34,
					"material":6
				},
				{
					"attributes":{
						"POSITION":35,
						"NORMAL":36,
						"TEXCOORD_0":37,
						"TEXCOORD_1":38
					},
					"indices":39,
					"material":1
				}
			]
		}
	],
	"accessors":[
		{
			"bufferView":0,
			"componentType":5126,
			"count":229,
			"max":[
				4.599484920501709,
				2.350123882293701,
				1.4969900846481323
			],
			"min":[
				-13.399883270263672,
				-0.4489805996417999,
				-1.4969900846481323
			],
			"type":"VEC3"
		},
		{
			"bufferView":1,
			"componentType":5126,
			"count":229,
			"type":"VEC3"
		},
		{
			"bufferView":2,
			"componentType":5126,
			"count":229,
			"type":"VEC2"
		},
		{
			"bufferView":3,
			"componentType":5126,
			"count":229,
			"type":"VEC2"
		},
		{
			"bufferView":4,
			"componentType":5123,
			"count":396,
			"type":"SCALAR"
		},
		{
			"bufferView":5,
			"componentType":5126,
			"count":144,
			"max":[
				4.106003284454346,
				2.350123882293701,
				1.4256771802902222
			],
			"min":[
				-8.499138832092285,
				1.0025533437728882,
				-1.4256771802902222
			],
			"type":"VEC3"
		},
		{
			"bufferView":6,
			"componentType":5126,
			"count":144,
			"type":"VEC3"
		},
		{
			"bufferView":7,
			"componentType":5126,
			"count":144,
			"type":"VEC2"
		},
		{
			"bufferView":8,
			"componentType":5126,
			"count":144,
			"type":"VEC2"
		},
		{
			"bufferView":9,
			"componentType":5123,
			"count":216,
			"type":"SCALAR"
		},
		{
			"bufferView":10,
			"componentType":5126,
			"count":40,
			"max":[
				4.456165313720703,
				0.7707043886184692,
				0.7048957943916321
			],
			"min":[
				-12.036232948303223,
				0.17944586277008057,
				-0.7048957943916321
			],
			"type":"VEC3"
		},
		{
			"bufferView":11,
			"componentType":5126,
			"count":40,
			"type":"VEC3"
		},
		{
			"bufferView":12,
			"componentType":5126,
			"count":40,
			"type":"VEC2"
		},
		{
			"bufferView":13,
			"componentType":5126,
			"count":40,
			"type":"VEC2"
		},
		{
			"bufferView":14,
			"componentType":5123,
			"count":84,
			"type":"SCALAR"
		},
		{
			"bufferView":15,
			"componentType":5126,
			"count":72,
			"max":[
				4.456964015960693,
				1.0111321210861206,
				1.2339915037155151
			],
			"min":[
				-12.036232948303223,
				0.17944586277008057,
				-1.2339915037155151
			],
			"type":"VEC3"
		},
		{
			"bufferView":16,
			"componentType":5126,
			"count":72,
			"type":"VEC3"
		},
		{
			"bufferView":17,
			"componentType":5126,
			"count":72,
			"type":"VEC2"
		},
		{
			"bufferView":18,
			"componentType":5126,
			"count":72,
			"type":"VEC2"
		},
		{
			"bufferView":19,
			"componentType":5123,
			"count":108,
			"type":"SCALAR"
		},
		{
			"bufferView":20,
			"componentType":5126,
			"count":56,
			"max":[
				4.8733110427856445,
				2.5918679237365723,
				1.7349357604980469
			],
			"min":[
				-8.758401870727539,
				2.1593081951141357,
				-1.7349357604980469
			],
			"type":"VEC3"
		},
		{
			"bufferView":21,
			"componentType":5126,
			"count":56,
			"type":"VEC3"
		},
		{
			"bufferView":22,
			"componentType":5126,
			"count":56,
			"type":"VEC2"
		},
		{
			"bufferView":23,
			"componentType":5126,
			"count":56,
			"type":"VEC2"
		},
		{
			"bufferView":24,
			"componentType":5123,
			"count":84,
			"type":"SCALAR"
		},
		{
			"bufferView":25,
			"componentType":5126,
			"count":218,
			"max":[
				7.039224624633789,
				1.2325330972671509,
				0.32499217987060547
			],
			"min":[
				4.105982780456543,
				-0.5974174737930298,
				-0.32499217987060547
			],
			"type":"VEC3"
		},
		{
			"bufferView":26,
			"componentType":5126,
			"count":218,
			"type":"VEC3"
		},
		{
			"bufferView":27,
			"componentType":5126,
			"count":218,
			"type":"VEC2"
		},
		{
			"bufferView":28,
			"componentType":5126,
			"count":218,
			"type":"VEC2"
		},
		{
			"bufferView":29,
			"componentType":5123,
			"count":450,
			"type":"SCALAR"
		},
		{
			"bufferView":30,
			"componentType":5126,
			"count":16,
			"max":[
				7.039224624633789,
				0.48111194372177124,
				0.02469616010785103
			],
			"min":[
				5.072181701660156,
				-0.5882718563079834,
				-0.02469616010785103
			],
			"type":"VEC3"
		},
		{
			"bufferView":31,
			"componentType":5126,
			"count":16,
			"type":"VEC3"
		},
		{
			"bufferView":32,
			"componentType":5126,
			"count":16,
			"type":"VEC2"
		},
		{
			"bufferView":33,
			"componentType":5126,
			"count":16,
			"type":"VEC2"
		},
		{
			"bufferView":34,
			"componentType":5123,
			"count":24,
			"type":"SCALAR"
		},
		{
			"bufferView":35,
			"componentType":5126,
			"count":70,
			"max":[
				4.8733110427856445,
				2.5918679237365723,
				1.7349357604980469
			],
			"min":[
				-8.758401870727539,
				2.061680555343628,
				-1.7349357604980469
			],
			"type":"VEC3"
		},
		{
			"bufferView":36,
			"componentType":5126,
			"count":70,
			"type":"VEC3"
		},
		{
			"bufferView":37,
			"componentType":5126,
			"count":70,
			"type":"VEC2"
		},
		{
			"bufferView":38,
			"componentType":5126,
			"count":70,
			"type":"VEC2"
		},
		{
			"bufferView":39,
			"componentType":5123,
			"count":108,
			"type":"SCALAR"
		}
	],
	"bufferViews":[
		{
			"buffer":0,
			"byteLength":2748,
			"byteOffset":0,
			"target":34962
		},
		{
			"buffer":0,
			"byteLength":2748,
			"byteOffset":2748,
			"target":34962
		},
		{
			"buffer":0,
			"byteLength":1832,
			"byteOffset":5496,
			"target":34962
		},
		{
			"buffer":0,
			"byteLength":1832,
			"byteOffset":7328,
			"target":34962
		},
		{
			"buffer":0,
			"byteLength":792,
			"byteOffset":9160,
			"target":34963
		},
		{
			"buffer":0,
			"byteLength":1728,
			"byteOffset":9952,
			"target":34962
		},
		{
			"buffer":0,
			"byteLength":1728,
			"byteOffset":11680,
			"target":34962
		},
		{
			"buffer":0,
			"byteLength":1152,
			"byteOffset":13408,
			"target":34962
		},
		{
			"buffer":0,
			"byteLength":1152,
			"byteOffset":14560,
			"target":34962
		},
		{
			"buffer":0,
			"byteLength":432,
			"byteOffset":15712,
			"target":34963
		},
		{
			"buffer":0,
			"byteLength":480,
			"byteOffset":16144,
			"target":34962
		},
		{
			"buffer":0,
			"byteLength":480,
			"byteOffset":16624,
			"target":34962
		},
		{
			"buffer":0,
			"byteLength":320,
			"byteOffset":17104,
			"target":34962
		},
		{
			"buffer":0,
			"byteLength":320,
			"byteOffset":17424,
			"target":34962
		},
		{
			"buffer":0,
			"byteLength":168,
			"byteOffset":17744,
			"target":34963
		},
		{
			"buffer":0,
			"byteLength":864,
			"byteOffset":17912,
			"target":34962
		},
		{
			"buffer":0,
			"byteLength":864,
			"byteOffset":18776,
			"target":34962
		},
		{
			"buffer":0,
			"byteLength":576,
			"byteOffset":19640,
			"target":34962
		},
		{
			"buffer":0,
			"byteLength":576,
			"byteOffset":20216,
			"target":34962
		},
		{
			"buffer":0,
			"byteLength":216,
			"byteOffset":20792,
			"target":34963
		},
		{
			"buffer":0,
			"byteLength":672,
			"byteOffset":21008,
			"target":34962
		},
		{
			"buffer":0,
			"byteLength":672,
			"byteOffset":21680,
			"target":34962
		},
		{
			"buffer":0,
			"byteLength":448,
			"byteOffset":22352,
			"target":34962
		},
		{
			"buffer":0,
			"byteLength":448,
			"byteOffset":22800,
			"target":34962
		},
		{
			"buffer":0,
			"byteLength":168,
			"byteOffset":23248,
			"target":34963
		},
		{
			"buffer":0,
			"byteLength":2616,
			"byteOffset":23416,
			"target":34962
		},
		{
			"buffer":0,
			"byteLength":2616,
			"byteOffset":26032,
			"target":34962
		},
		{
			"buffer":0,
			"byteLength":1744,
			"byteOffset":28648,
			"target":34962
		},
		{
			"buffer":0,
			"byteLength":1744,
			"byteOffset":30392,
			"target":34962
		},
		{
			"buffer":0,
			"byteLength":900,
			"byteOffset":32136,
			"target":34963
		},
		{
			"buffer":0,
			"byteLength":192,
			"byteOffset":33036,
			"target":34962
		},
		{
			"buffer":0,
			"byteLength":192,
			"byteOffset":33228,
			"target":34962
		},
		{
			"buffer":0,
			"byteLength":128,
			"byteOffset":33420,
			"target":34962
		},
		{
			"buffer":0,
			"byteLength":128,
			"byteOffset":33548,
			"target":34962
		},
		{
			"buffer":0,
			"byteLength":48,
			"byteOffset":33676,
			"target":34963
		},
		{
			"buffer":0,
			"byteLength":840,
			"byteOffset":33724,
			"target":34962
		},
		{
			"buffer":0,
			"byteLength":840,
			"byteOffset":34564,
			"target":34962
		},
		{
			"buffer":0,
			"byteLength":560,
			"byteOffset":35404,
			"target":34962
		},
		{
			"buffer":0,
			"byteLength":560,
			"byteOffset":35964,
			"target":34962
		},
		{
			"buffer":0,
			"byteLength":216,
			"byteOffset":36524,
			"target":34963
		}
	],
	"buffers":[
		{
			"byteLength":36740,
			"uri":"boat.bin"
		}
	]
}
