<svg xmlns="http://www.w3.org/2000/svg" viewBox="0 0 82 49">
  <path fill="#004432" d="M77.354 27.58c.45-.762.587-1.936.312-1.881a37.549 37.549 0 0 1-4.716 2.752 49.996 49.996 0 0 1-7.56 2.377c-4.588.917-6.258.651-6.258.651.311-.695.76-1.32 1.321-1.835a1.119 1.119 0 0 1 1.322.055 2.294 2.294 0 0 0-.175-1.99 6.808 6.808 0 0 0-2.128-.533 6.421 6.421 0 0 0-1.79-.11c-.367.083-4.486 2.349-6.083 2.468a17.538 17.538 0 0 1-4.376-.679c-4.588-1.284-9.441-3.954-13.23-6.193A79.328 79.328 0 0 1 20.404 12.45C13.707 6.138 11.661 1 11.23.752c-.275-.174-.67.248-.477 1.991a13.23 13.23 0 0 0 3.11 7.092 26.238 26.238 0 0 0 1.836 2.046C7.816 6.67 6.98 1.34 6.22.551c-.358-.368-1.01 1.32-.44 3.67.568 2.348 1.834 5.275 6.358 8.752C2.963 8.542 2.045 4.716 1.293 4.615c-.45-.092-1.12 1.835-.23 3.615 1.092 2.22 4.294 4.963 8.69 6.762C4.622 13.845.42 11.377.081 11.679c-.34.303.422 2.074 1.486 3.028.734.652 3.34 2.193 7.542 3.23-4.312-.165-6.478-.698-6.33-.138.339.764.906 1.405 1.623 1.835a12.266 12.266 0 0 0 5.184 1.349c-.762.082-3.422.395-3.45.706-.027.312.202.56.56.918 16.12 15.423 27.277 18.79 27.277 18.79-3.56 1.404-8.129 2.138-8.257 2.643-.129.504 1.835 1.789 3.927 2.44 2.043.648 4.193.894 6.33.725.707-.137 2.661-.303 7.79-3.67a30.277 30.277 0 0 0 10.762-2.11 72.063 72.063 0 0 0 11.24-5.854c.917-.11 2.468.45 3 .312s.367-.312-.083-.734c-.29-.295-.596-.574-.917-.835 0 0 .091-.055.12-.092a8.505 8.505 0 0 0 3.944.505c.918-.082 1.689-.982 1.542-1.01a23.14 23.14 0 0 1-3.67-.724l.137-.083c2.973 0 4.487-.706 5.386-1.376.752-.56.844-1.009.67-1.064-.174-.055-1.174.275-3 .45 1.348-.79 3.615-1.964 4.431-3.34h.028Z"/>
</svg>
