{
	"asset":{
		"generator":"Khronos glTF Blender I/O v4.3.47",
		"version":"2.0"
	},
	"scene":0,
	"scenes":[
		{
			"name":"Scene",
			"nodes":[
				0,
				1,
				2,
				3,
				4
			]
		}
	],
	"nodes":[
		{
			"mesh":0,
			"name":"Cylinder.007"
		},
		{
			"mesh":1,
			"name":"Cylinder.001"
		},
		{
			"mesh":2,
			"name":"Cylinder.002"
		},
		{
			"mesh":3,
			"name":"Cylinder.003"
		},
		{
			"mesh":4,
			"name":"Cylinder.004"
		}
	],
	"meshes":[
		{
			"name":"Cylinder.003",
			"primitives":[
				{
					"attributes":{
						"POSITION":0,
						"NORMAL":1,
						"TEXCOORD_0":2,
						"TEXCOORD_1":3,
						"TEXCOORD_2":4
					},
					"indices":5
				}
			]
		},
		{
			"name":"Cylinder.004",
			"primitives":[
				{
					"attributes":{
						"POSITION":6,
						"NORMAL":7,
						"TEXCOORD_0":8,
						"TEXCOORD_1":9,
						"TEXCOORD_2":10
					},
					"indices":11
				}
			]
		},
		{
			"name":"Cylinder.005",
			"primitives":[
				{
					"attributes":{
						"POSITION":12,
						"NORMAL":13,
						"TEXCOORD_0":14,
						"TEXCOORD_1":15,
						"TEXCOORD_2":16
					},
					"indices":17
				}
			]
		},
		{
			"name":"Cylinder.001",
			"primitives":[
				{
					"attributes":{
						"POSITION":18,
						"NORMAL":19,
						"TEXCOORD_0":20,
						"TEXCOORD_1":21,
						"TEXCOORD_2":22
					},
					"indices":23
				}
			]
		},
		{
			"name":"Cylinder.002",
			"primitives":[
				{
					"attributes":{
						"POSITION":24,
						"NORMAL":25,
						"TEXCOORD_0":26,
						"TEXCOORD_1":27,
						"TEXCOORD_2":28
					},
					"indices":29
				}
			]
		}
	],
	"accessors":[
		{
			"bufferView":0,
			"componentType":5126,
			"count":1018,
			"max":[
				0.6619397401809692,
				1.0498746633529663,
				0.0065441736951470375
			],
			"min":[
				-0.01007220707833767,
				0.007598280906677246,
				-1.4516204595565796
			],
			"type":"VEC3"
		},
		{
			"bufferView":1,
			"componentType":5126,
			"count":1018,
			"type":"VEC3"
		},
		{
			"bufferView":2,
			"componentType":5126,
			"count":1018,
			"type":"VEC2"
		},
		{
			"bufferView":3,
			"componentType":5126,
			"count":1018,
			"type":"VEC2"
		},
		{
			"bufferView":4,
			"componentType":5126,
			"count":1018,
			"type":"VEC2"
		},
		{
			"bufferView":5,
			"componentType":5123,
			"count":1932,
			"type":"SCALAR"
		},
		{
			"bufferView":6,
			"componentType":5126,
			"count":1109,
			"max":[
				0.6668082475662231,
				2.049799919128418,
				0.016269564628601074
			],
			"min":[
				-0.005203694105148315,
				1.007523536682129,
				-1.4418952465057373
			],
			"type":"VEC3"
		},
		{
			"bufferView":7,
			"componentType":5126,
			"count":1109,
			"type":"VEC3"
		},
		{
			"bufferView":8,
			"componentType":5126,
			"count":1109,
			"type":"VEC2"
		},
		{
			"bufferView":9,
			"componentType":5126,
			"count":1109,
			"type":"VEC2"
		},
		{
			"bufferView":10,
			"componentType":5126,
			"count":1109,
			"type":"VEC2"
		},
		{
			"bufferView":11,
			"componentType":5123,
			"count":1932,
			"type":"SCALAR"
		},
		{
			"bufferView":12,
			"componentType":5126,
			"count":1118,
			"max":[
				0.6619397401809692,
				3.050621509552002,
				0.006544175557792187
			],
			"min":[
				-0.010072201490402222,
				2.008345127105713,
				-1.4516205787658691
			],
			"type":"VEC3"
		},
		{
			"bufferView":13,
			"componentType":5126,
			"count":1118,
			"type":"VEC3"
		},
		{
			"bufferView":14,
			"componentType":5126,
			"count":1118,
			"type":"VEC2"
		},
		{
			"bufferView":15,
			"componentType":5126,
			"count":1118,
			"type":"VEC2"
		},
		{
			"bufferView":16,
			"componentType":5126,
			"count":1118,
			"type":"VEC2"
		},
		{
			"bufferView":17,
			"componentType":5123,
			"count":1932,
			"type":"SCALAR"
		},
		{
			"bufferView":18,
			"componentType":5126,
			"count":1112,
			"max":[
				0.6668082475662231,
				4.051510334014893,
				0.016269564628601074
			],
			"min":[
				-0.005203694105148315,
				3.0092339515686035,
				-1.4418952465057373
			],
			"type":"VEC3"
		},
		{
			"bufferView":19,
			"componentType":5126,
			"count":1112,
			"type":"VEC3"
		},
		{
			"bufferView":20,
			"componentType":5126,
			"count":1112,
			"type":"VEC2"
		},
		{
			"bufferView":21,
			"componentType":5126,
			"count":1112,
			"type":"VEC2"
		},
		{
			"bufferView":22,
			"componentType":5126,
			"count":1112,
			"type":"VEC2"
		},
		{
			"bufferView":23,
			"componentType":5123,
			"count":1932,
			"type":"SCALAR"
		},
		{
			"bufferView":24,
			"componentType":5126,
			"count":1098,
			"max":[
				0.6543192863464355,
				4.471701145172119,
				0.19447354972362518
			],
			"min":[
				-0.0035377463791519403,
				4.007620811462402,
				-1.6552131175994873
			],
			"type":"VEC3"
		},
		{
			"bufferView":25,
			"componentType":5126,
			"count":1098,
			"type":"VEC3"
		},
		{
			"bufferView":26,
			"componentType":5126,
			"count":1098,
			"type":"VEC2"
		},
		{
			"bufferView":27,
			"componentType":5126,
			"count":1098,
			"type":"VEC2"
		},
		{
			"bufferView":28,
			"componentType":5126,
			"count":1098,
			"type":"VEC2"
		},
		{
			"bufferView":29,
			"componentType":5123,
			"count":1872,
			"type":"SCALAR"
		}
	],
	"bufferViews":[
		{
			"buffer":0,
			"byteLength":12216,
			"byteOffset":0,
			"target":34962
		},
		{
			"buffer":0,
			"byteLength":12216,
			"byteOffset":12216,
			"target":34962
		},
		{
			"buffer":0,
			"byteLength":8144,
			"byteOffset":24432,
			"target":34962
		},
		{
			"buffer":0,
			"byteLength":8144,
			"byteOffset":32576,
			"target":34962
		},
		{
			"buffer":0,
			"byteLength":8144,
			"byteOffset":40720,
			"target":34962
		},
		{
			"buffer":0,
			"byteLength":3864,
			"byteOffset":48864,
			"target":34963
		},
		{
			"buffer":0,
			"byteLength":13308,
			"byteOffset":52728,
			"target":34962
		},
		{
			"buffer":0,
			"byteLength":13308,
			"byteOffset":66036,
			"target":34962
		},
		{
			"buffer":0,
			"byteLength":8872,
			"byteOffset":79344,
			"target":34962
		},
		{
			"buffer":0,
			"byteLength":8872,
			"byteOffset":88216,
			"target":34962
		},
		{
			"buffer":0,
			"byteLength":8872,
			"byteOffset":97088,
			"target":34962
		},
		{
			"buffer":0,
			"byteLength":3864,
			"byteOffset":105960,
			"target":34963
		},
		{
			"buffer":0,
			"byteLength":13416,
			"byteOffset":109824,
			"target":34962
		},
		{
			"buffer":0,
			"byteLength":13416,
			"byteOffset":123240,
			"target":34962
		},
		{
			"buffer":0,
			"byteLength":8944,
			"byteOffset":136656,
			"target":34962
		},
		{
			"buffer":0,
			"byteLength":8944,
			"byteOffset":145600,
			"target":34962
		},
		{
			"buffer":0,
			"byteLength":8944,
			"byteOffset":154544,
			"target":34962
		},
		{
			"buffer":0,
			"byteLength":3864,
			"byteOffset":163488,
			"target":34963
		},
		{
			"buffer":0,
			"byteLength":13344,
			"byteOffset":167352,
			"target":34962
		},
		{
			"buffer":0,
			"byteLength":13344,
			"byteOffset":180696,
			"target":34962
		},
		{
			"buffer":0,
			"byteLength":8896,
			"byteOffset":194040,
			"target":34962
		},
		{
			"buffer":0,
			"byteLength":8896,
			"byteOffset":202936,
			"target":34962
		},
		{
			"buffer":0,
			"byteLength":8896,
			"byteOffset":211832,
			"target":34962
		},
		{
			"buffer":0,
			"byteLength":3864,
			"byteOffset":220728,
			"target":34963
		},
		{
			"buffer":0,
			"byteLength":13176,
			"byteOffset":224592,
			"target":34962
		},
		{
			"buffer":0,
			"byteLength":13176,
			"byteOffset":237768,
			"target":34962
		},
		{
			"buffer":0,
			"byteLength":8784,
			"byteOffset":250944,
			"target":34962
		},
		{
			"buffer":0,
			"byteLength":8784,
			"byteOffset":259728,
			"target":34962
		},
		{
			"buffer":0,
			"byteLength":8784,
			"byteOffset":268512,
			"target":34962
		},
		{
			"buffer":0,
			"byteLength":3744,
			"byteOffset":277296,
			"target":34963
		}
	],
	"buffers":[
		{
			"byteLength":281040,
			"uri":"tower.bin"
		}
	]
}
